<svg xmlns="http://www.w3.org/2000/svg" viewBox="0 0 960 600">
  <g fill="none" stroke="#1c1917" stroke-width="0.8" stroke-linejoin="round" stroke-opacity="0.13">
    <!-- WA --><path d="M118,88 L220,80 L252,145 L204,162 L155,184 L118,184Z"/>
    <!-- OR --><path d="M118,184 L155,184 L204,162 L252,176 L240,295 L118,295Z"/>
    <!-- CA --><path d="M118,295 L240,295 L226,382 L208,464 L134,448 L118,398Z"/>
    <!-- NV --><path d="M240,295 L300,260 L293,393 L226,382Z"/>
    <!-- ID --><path d="M252,145 L316,126 L311,208 L278,218 L256,290 L252,176 L204,162Z"/>
    <!-- MT --><path d="M252,145 L448,128 L445,208 L311,208 L316,126Z"/>
    <!-- WY --><path d="M300,260 L448,252 L445,342 L300,348Z"/>
    <!-- UT --><path d="M300,348 L380,342 L380,440 L293,448 L293,393Z"/>
    <!-- CO --><path d="M380,342 L508,336 L504,418 L380,440Z"/>
    <!-- AZ --><path d="M293,448 L380,440 L380,506 L265,520 L248,472Z"/>
    <!-- NM --><path d="M380,440 L504,418 L500,480 L380,506Z"/>
    <!-- ND --><path d="M448,128 L592,120 L590,205 L445,208Z"/>
    <!-- SD --><path d="M445,208 L590,205 L586,275 L445,275Z"/>
    <!-- NE --><path d="M445,275 L586,275 L580,342 L445,342Z"/>
    <!-- KS --><path d="M445,342 L580,342 L576,406 L445,406Z"/>
    <!-- OK --><path d="M445,406 L576,406 L600,456 L445,456 L442,430Z"/>
    <!-- TX --><path d="M445,456 L600,456 L645,580 L445,580Z"/>
    <!-- MN --><path d="M590,120 L672,116 L670,206 L590,205Z"/>
    <!-- IA --><path d="M590,205 L670,206 L672,292 L586,275Z"/>
    <!-- MO --><path d="M586,275 L672,292 L695,390 L648,390 L604,406 L580,342Z"/>
    <!-- AR --><path d="M604,406 L648,390 L695,390 L698,460 L604,460Z"/>
    <!-- LA --><path d="M604,460 L698,460 L706,516 L620,528 L598,494Z"/>
    <!-- WI --><path d="M600,118 L672,116 L670,206 L645,222 L622,218 L600,206Z"/>
    <!-- IL --><path d="M645,222 L702,218 L705,346 L648,356 L645,295Z"/>
    <!-- MI --><path d="M654,126 L710,120 L736,196 L700,230 L663,226Z"/>
    <!-- IN --><path d="M702,218 L748,218 L750,333 L705,346Z"/>
    <!-- OH --><path d="M748,218 L810,216 L814,310 L750,333Z"/>
    <!-- KY --><path d="M648,356 L814,322 L815,378 L700,390 L648,390Z"/>
    <!-- TN --><path d="M648,390 L700,390 L815,378 L818,428 L648,435Z"/>
    <!-- MS --><path d="M648,435 L700,430 L712,516 L648,520Z"/>
    <!-- AL --><path d="M700,430 L800,424 L805,512 L712,516Z"/>
    <!-- GA --><path d="M800,424 L864,404 L860,504 L805,512Z"/>
    <!-- FL --><path d="M805,512 L860,504 L880,560 L768,572 L760,532Z"/>
    <!-- SC --><path d="M810,374 L875,378 L864,440 L810,436Z"/>
    <!-- NC --><path d="M808,320 L892,324 L884,376 L810,374Z"/>
    <!-- VA --><path d="M808,258 L894,254 L896,302 L808,320Z"/>
    <!-- WV --><path d="M808,258 L848,252 L855,318 L808,320Z"/>
    <!-- MD --><path d="M848,260 L910,256 L910,284 L855,295Z"/>
    <!-- DE --><path d="M893,248 L920,250 L920,282 L893,282Z"/>
    <!-- NJ --><path d="M893,227 L930,234 L924,272 L893,248Z"/>
    <!-- PA --><path d="M808,205 L893,202 L893,227 L855,250 L808,258Z"/>
    <!-- NY --><path d="M805,165 L912,160 L912,227 L893,202 L808,205Z"/>
    <!-- CT --><path d="M893,202 L930,198 L930,227 L893,227Z"/>
    <!-- RI --><path d="M930,198 L950,205 L950,227 L930,227Z"/>
    <!-- MA --><path d="M893,183 L952,180 L952,202 L893,202Z"/>
    <!-- NH --><path d="M893,145 L918,143 L918,183 L893,183Z"/>
    <!-- VT --><path d="M868,142 L893,145 L893,183 L868,183Z"/>
    <!-- ME --><path d="M893,86 L960,86 L960,168 L918,168 L918,145 L893,145Z"/>
    <!-- AK inset --><path d="M56,495 L232,495 L248,555 L185,565 L110,558 L58,530Z"/>
    <!-- HI inset --><path d="M288,543 L366,543 L372,573 L282,573Z"/>
  </g>
</svg>
